<?xml version="1.0" encoding="utf-8"?>
<!-- Generator: Adobe Illustrator 22.1.0, SVG Export Plug-In . SVG Version: 6.00 Build 0)  -->
<svg version="1.1" id="Layer_1" xmlns="http://www.w3.org/2000/svg" xmlns:xlink="http://www.w3.org/1999/xlink" x="0px" y="0px"
	 viewBox="0 0 32 32" style="enable-background:new 0 0 32 32;" xml:space="preserve">
<title>webpack</title>
<path d="M28,24.2l-11.6,6.5v-5.1l7.2-3.9L28,24.2z M28.8,23.4V9.8l-4.2,2.4V21L28.8,23.4z M3.9,24.2l11.6,6.5v-5.1l-7.2-3.9
	L3.9,24.2z M3.1,23.4V9.8l4.2,2.4V21L3.1,23.4z M3.6,9l11.8-6.7v4.9l-7.6,4.2L3.6,9z M28.3,9L16.5,2.3v4.9l7.6,4.2L28.3,9z
	 M15.5,24.4l-7.1-3.9v-7.7l7.1,4.1V24.4z M16.5,24.4l7.1-3.9v-7.7l-7.1,4.1L16.5,24.4z M8.8,12L16,8.1l7.1,3.9L16,16.1L8.8,12z"/>
</svg>
